# xmcd CD database file
#
# Track frame offsets:
#	150
#	23864
#	54105
#	95539
#	143124
#	185470
#	233982
#
# Disc length: 3632 seconds
#
# Revision: 0
# Processed by: cddbd v1.5.2PL0 Copyright (c) Steve Scherf et al.
# Submitted via: CDex 1.70beta3
#
DISCID=540e2e07
DTITLE=Charles Gayle Trio - Streets
DYEAR=2011
DGENRE=Jazz
TTITLE0=Compassion I
TTITLE1=Compassion II
TTITLE2=Glory and Jesus
TTITLE3=Streets
TTITLE4=March of April
TTITLE5=Doxology
TTITLE6=Tribulations
EXTD=YEAR: 2011
EXTT0=
EXTT1=
EXTT2=
EXTT3=
EXTT4=
EXTT5=
EXTT6=
PLAYORDER=
